<mxfile host="app.diagrams.net" modified="2024-05-21T09:11:42.852Z" agent="Mozilla/5.0 (Macintosh; Intel Mac OS X 10_15_7) AppleWebKit/537.36 (KHTML, like Gecko) Chrome/124.0.0.0 Safari/537.36" etag="sWLiPlwukxyskNQJloOd" version="24.4.4" type="github">
  <diagram name="第 1 页" id="Zar_pOVk2RAQP8q4mv97">
    <mxGraphModel dx="1193" dy="1789" grid="1" gridSize="10" guides="1" tooltips="1" connect="1" arrows="1" fold="1" page="1" pageScale="1" pageWidth="827" pageHeight="1169" math="0" shadow="0">
      <root>
        <mxCell id="0" />
        <mxCell id="1" parent="0" />
        <mxCell id="X8xrKUzUA_T0-seAo927-33" value="" style="edgeStyle=orthogonalEdgeStyle;rounded=0;orthogonalLoop=1;jettySize=auto;html=1;" edge="1" parent="1" source="X8xrKUzUA_T0-seAo927-3" target="X8xrKUzUA_T0-seAo927-32">
          <mxGeometry relative="1" as="geometry" />
        </mxCell>
        <mxCell id="X8xrKUzUA_T0-seAo927-3" value="开始" style="rounded=1;whiteSpace=wrap;html=1;fillColor=#008a00;fontColor=#ffffff;strokeColor=#005700;" vertex="1" parent="1">
          <mxGeometry x="80" y="-130" width="90" height="40" as="geometry" />
        </mxCell>
        <mxCell id="X8xrKUzUA_T0-seAo927-14" value="请求广告并将标记位置为false" style="whiteSpace=wrap;html=1;fillColor=#f0a30a;fontColor=#000000;strokeColor=#BD7000;" vertex="1" parent="1">
          <mxGeometry x="920" y="-146" width="120" height="60" as="geometry" />
        </mxCell>
        <mxCell id="X8xrKUzUA_T0-seAo927-35" value="" style="edgeStyle=orthogonalEdgeStyle;rounded=0;orthogonalLoop=1;jettySize=auto;html=1;" edge="1" parent="1" source="X8xrKUzUA_T0-seAo927-32" target="X8xrKUzUA_T0-seAo927-34">
          <mxGeometry relative="1" as="geometry" />
        </mxCell>
        <mxCell id="X8xrKUzUA_T0-seAo927-36" value="是" style="edgeLabel;html=1;align=center;verticalAlign=middle;resizable=0;points=[];" vertex="1" connectable="0" parent="X8xrKUzUA_T0-seAo927-35">
          <mxGeometry x="-0.0456" y="-1" relative="1" as="geometry">
            <mxPoint as="offset" />
          </mxGeometry>
        </mxCell>
        <mxCell id="X8xrKUzUA_T0-seAo927-32" value="是否非滑动状态" style="rhombus;whiteSpace=wrap;html=1;rounded=0;fillColor=#d80073;fontColor=#ffffff;strokeColor=#A50040;" vertex="1" parent="1">
          <mxGeometry x="230" y="-155" width="80" height="90" as="geometry" />
        </mxCell>
        <mxCell id="X8xrKUzUA_T0-seAo927-38" value="" style="edgeStyle=orthogonalEdgeStyle;rounded=0;orthogonalLoop=1;jettySize=auto;html=1;" edge="1" parent="1" source="X8xrKUzUA_T0-seAo927-34" target="X8xrKUzUA_T0-seAo927-37">
          <mxGeometry relative="1" as="geometry" />
        </mxCell>
        <mxCell id="X8xrKUzUA_T0-seAo927-39" value="是" style="edgeLabel;html=1;align=center;verticalAlign=middle;resizable=0;points=[];" vertex="1" connectable="0" parent="X8xrKUzUA_T0-seAo927-38">
          <mxGeometry x="0.0802" y="-3" relative="1" as="geometry">
            <mxPoint as="offset" />
          </mxGeometry>
        </mxCell>
        <mxCell id="X8xrKUzUA_T0-seAo927-34" value="是否与上次的滑动状态不同" style="rhombus;whiteSpace=wrap;html=1;rounded=0;fillColor=#d80073;fontColor=#ffffff;strokeColor=#A50040;" vertex="1" parent="1">
          <mxGeometry x="370" y="-152" width="90" height="85" as="geometry" />
        </mxCell>
        <mxCell id="X8xrKUzUA_T0-seAo927-41" value="" style="edgeStyle=orthogonalEdgeStyle;rounded=0;orthogonalLoop=1;jettySize=auto;html=1;" edge="1" parent="1" source="X8xrKUzUA_T0-seAo927-37" target="X8xrKUzUA_T0-seAo927-40">
          <mxGeometry relative="1" as="geometry" />
        </mxCell>
        <mxCell id="X8xrKUzUA_T0-seAo927-42" value="是" style="edgeLabel;html=1;align=center;verticalAlign=middle;resizable=0;points=[];" vertex="1" connectable="0" parent="X8xrKUzUA_T0-seAo927-41">
          <mxGeometry x="-0.1669" relative="1" as="geometry">
            <mxPoint as="offset" />
          </mxGeometry>
        </mxCell>
        <mxCell id="X8xrKUzUA_T0-seAo927-37" value="是否有15广告模块" style="rhombus;whiteSpace=wrap;html=1;rounded=0;fillColor=#d80073;fontColor=#ffffff;strokeColor=#A50040;" vertex="1" parent="1">
          <mxGeometry x="370" width="90" height="90" as="geometry" />
        </mxCell>
        <mxCell id="X8xrKUzUA_T0-seAo927-43" value="" style="edgeStyle=orthogonalEdgeStyle;rounded=0;orthogonalLoop=1;jettySize=auto;html=1;entryX=0;entryY=0.5;entryDx=0;entryDy=0;" edge="1" parent="1" source="X8xrKUzUA_T0-seAo927-40" target="X8xrKUzUA_T0-seAo927-49">
          <mxGeometry relative="1" as="geometry">
            <mxPoint x="840" y="-110.00000000000023" as="targetPoint" />
          </mxGeometry>
        </mxCell>
        <mxCell id="X8xrKUzUA_T0-seAo927-44" value="否" style="edgeLabel;html=1;align=center;verticalAlign=middle;resizable=0;points=[];" vertex="1" connectable="0" parent="X8xrKUzUA_T0-seAo927-43">
          <mxGeometry x="-0.1333" relative="1" as="geometry">
            <mxPoint as="offset" />
          </mxGeometry>
        </mxCell>
        <mxCell id="X8xrKUzUA_T0-seAo927-46" value="" style="edgeStyle=orthogonalEdgeStyle;rounded=0;orthogonalLoop=1;jettySize=auto;html=1;" edge="1" parent="1" source="X8xrKUzUA_T0-seAo927-40" target="X8xrKUzUA_T0-seAo927-45">
          <mxGeometry relative="1" as="geometry" />
        </mxCell>
        <mxCell id="X8xrKUzUA_T0-seAo927-63" value="是" style="edgeLabel;html=1;align=center;verticalAlign=middle;resizable=0;points=[];" vertex="1" connectable="0" parent="X8xrKUzUA_T0-seAo927-46">
          <mxGeometry x="-0.1536" y="-1" relative="1" as="geometry">
            <mxPoint as="offset" />
          </mxGeometry>
        </mxCell>
        <mxCell id="X8xrKUzUA_T0-seAo927-40" value="下发的可见面积比例是否小于1" style="rhombus;whiteSpace=wrap;html=1;rounded=0;fillColor=#d80073;fontColor=#ffffff;strokeColor=#A50040;" vertex="1" parent="1">
          <mxGeometry x="560" width="90" height="90" as="geometry" />
        </mxCell>
        <mxCell id="X8xrKUzUA_T0-seAo927-53" value="" style="edgeStyle=orthogonalEdgeStyle;rounded=0;orthogonalLoop=1;jettySize=auto;html=1;" edge="1" parent="1" source="X8xrKUzUA_T0-seAo927-45" target="X8xrKUzUA_T0-seAo927-50">
          <mxGeometry relative="1" as="geometry" />
        </mxCell>
        <mxCell id="X8xrKUzUA_T0-seAo927-54" value="是" style="edgeLabel;html=1;align=center;verticalAlign=middle;resizable=0;points=[];" vertex="1" connectable="0" parent="X8xrKUzUA_T0-seAo927-53">
          <mxGeometry x="0.0582" y="-1" relative="1" as="geometry">
            <mxPoint as="offset" />
          </mxGeometry>
        </mxCell>
        <mxCell id="X8xrKUzUA_T0-seAo927-60" value="" style="edgeStyle=orthogonalEdgeStyle;rounded=0;orthogonalLoop=1;jettySize=auto;html=1;" edge="1" parent="1" source="X8xrKUzUA_T0-seAo927-45" target="X8xrKUzUA_T0-seAo927-59">
          <mxGeometry relative="1" as="geometry" />
        </mxCell>
        <mxCell id="X8xrKUzUA_T0-seAo927-61" value="否" style="edgeLabel;html=1;align=center;verticalAlign=middle;resizable=0;points=[];" vertex="1" connectable="0" parent="X8xrKUzUA_T0-seAo927-60">
          <mxGeometry x="-0.2235" y="-1" relative="1" as="geometry">
            <mxPoint y="-1" as="offset" />
          </mxGeometry>
        </mxCell>
        <mxCell id="X8xrKUzUA_T0-seAo927-45" value="可见面积是否达到配置比例" style="rhombus;whiteSpace=wrap;html=1;rounded=0;fillColor=#d80073;fontColor=#ffffff;strokeColor=#A50040;" vertex="1" parent="1">
          <mxGeometry x="560" y="-160" width="90" height="90" as="geometry" />
        </mxCell>
        <mxCell id="X8xrKUzUA_T0-seAo927-48" value="" style="edgeStyle=orthogonalEdgeStyle;rounded=0;orthogonalLoop=1;jettySize=auto;html=1;entryX=0.5;entryY=1;entryDx=0;entryDy=0;" edge="1" parent="1" source="X8xrKUzUA_T0-seAo927-47" target="X8xrKUzUA_T0-seAo927-49">
          <mxGeometry relative="1" as="geometry">
            <mxPoint x="900" y="-140.00000000000023" as="targetPoint" />
          </mxGeometry>
        </mxCell>
        <mxCell id="X8xrKUzUA_T0-seAo927-47" value="&lt;p style=&quot;margin: 0px; font-variant-numeric: normal; font-variant-east-asian: normal; font-variant-alternates: normal; font-kerning: auto; font-optical-sizing: auto; font-feature-settings: normal; font-variation-settings: normal; font-variant-position: normal; font-stretch: normal; font-size: 13px; line-height: normal; font-family: &amp;quot;Helvetica Neue&amp;quot;; text-align: start;&quot; class=&quot;p1&quot;&gt;15&lt;span style=&quot;font-variant-numeric: normal; font-variant-east-asian: normal; font-variant-alternates: normal; font-kerning: auto; font-optical-sizing: auto; font-feature-settings: normal; font-variation-settings: normal; font-variant-position: normal; font-stretch: normal; line-height: normal; font-family: &amp;quot;PingFang SC&amp;quot;;&quot; class=&quot;s1&quot;&gt;日&lt;/span&gt;view&lt;span style=&quot;font-variant-numeric: normal; font-variant-east-asian: normal; font-variant-alternates: normal; font-kerning: auto; font-optical-sizing: auto; font-feature-settings: normal; font-variation-settings: normal; font-variant-position: normal; font-stretch: normal; line-height: normal; font-family: &amp;quot;PingFang SC&amp;quot;;&quot; class=&quot;s1&quot;&gt;所在&lt;/span&gt;position&lt;span style=&quot;font-variant-numeric: normal; font-variant-east-asian: normal; font-variant-alternates: normal; font-kerning: auto; font-optical-sizing: auto; font-feature-settings: normal; font-variation-settings: normal; font-variant-position: normal; font-stretch: normal; line-height: normal; font-family: &amp;quot;PingFang SC&amp;quot;;&quot; class=&quot;s1&quot;&gt;大于等于第一完全可见的&lt;/span&gt;view&lt;span class=&quot;Apple-converted-space&quot;&gt;&amp;nbsp; &lt;/span&gt;&lt;span style=&quot;font-variant-numeric: normal; font-variant-east-asian: normal; font-variant-alternates: normal; font-kerning: auto; font-optical-sizing: auto; font-feature-settings: normal; font-variation-settings: normal; font-variant-position: normal; font-stretch: normal; line-height: normal; font-family: &amp;quot;PingFang SC&amp;quot;;&quot; class=&quot;s1&quot;&gt;的&lt;/span&gt;position&lt;span style=&quot;font-variant-numeric: normal; font-variant-east-asian: normal; font-variant-alternates: normal; font-kerning: auto; font-optical-sizing: auto; font-feature-settings: normal; font-variation-settings: normal; font-variant-position: normal; font-stretch: normal; line-height: normal; font-family: &amp;quot;PingFang SC&amp;quot;;&quot; class=&quot;s1&quot;&gt;并且小于等于最后一个完全可见的&lt;/span&gt;view&lt;span style=&quot;font-variant-numeric: normal; font-variant-east-asian: normal; font-variant-alternates: normal; font-kerning: auto; font-optical-sizing: auto; font-feature-settings: normal; font-variation-settings: normal; font-variant-position: normal; font-stretch: normal; line-height: normal; font-family: &amp;quot;PingFang SC&amp;quot;;&quot; class=&quot;s1&quot;&gt;的&lt;/span&gt;position&lt;/p&gt;" style="shape=document;whiteSpace=wrap;html=1;boundedLbl=1;" vertex="1" parent="1">
          <mxGeometry x="667" y="140" width="230" height="100" as="geometry" />
        </mxCell>
        <mxCell id="X8xrKUzUA_T0-seAo927-51" value="" style="edgeStyle=orthogonalEdgeStyle;rounded=0;orthogonalLoop=1;jettySize=auto;html=1;" edge="1" parent="1" source="X8xrKUzUA_T0-seAo927-49" target="X8xrKUzUA_T0-seAo927-50">
          <mxGeometry relative="1" as="geometry" />
        </mxCell>
        <mxCell id="X8xrKUzUA_T0-seAo927-52" value="是" style="edgeLabel;html=1;align=center;verticalAlign=middle;resizable=0;points=[];" vertex="1" connectable="0" parent="X8xrKUzUA_T0-seAo927-51">
          <mxGeometry x="0.0138" y="3" relative="1" as="geometry">
            <mxPoint as="offset" />
          </mxGeometry>
        </mxCell>
        <mxCell id="X8xrKUzUA_T0-seAo927-58" value="" style="edgeStyle=orthogonalEdgeStyle;rounded=0;orthogonalLoop=1;jettySize=auto;html=1;" edge="1" parent="1" source="X8xrKUzUA_T0-seAo927-49" target="X8xrKUzUA_T0-seAo927-57">
          <mxGeometry relative="1" as="geometry" />
        </mxCell>
        <mxCell id="X8xrKUzUA_T0-seAo927-62" value="否" style="edgeLabel;html=1;align=center;verticalAlign=middle;resizable=0;points=[];" vertex="1" connectable="0" parent="X8xrKUzUA_T0-seAo927-58">
          <mxGeometry x="-0.0707" y="-2" relative="1" as="geometry">
            <mxPoint as="offset" />
          </mxGeometry>
        </mxCell>
        <mxCell id="X8xrKUzUA_T0-seAo927-49" value="是否完全可见" style="rhombus;whiteSpace=wrap;html=1;rounded=0;fillColor=#d80073;fontColor=#ffffff;strokeColor=#A50040;" vertex="1" parent="1">
          <mxGeometry x="737" width="90" height="90" as="geometry" />
        </mxCell>
        <mxCell id="X8xrKUzUA_T0-seAo927-55" value="" style="edgeStyle=orthogonalEdgeStyle;rounded=0;orthogonalLoop=1;jettySize=auto;html=1;" edge="1" parent="1" source="X8xrKUzUA_T0-seAo927-50" target="X8xrKUzUA_T0-seAo927-14">
          <mxGeometry relative="1" as="geometry" />
        </mxCell>
        <mxCell id="X8xrKUzUA_T0-seAo927-56" value="是" style="edgeLabel;html=1;align=center;verticalAlign=middle;resizable=0;points=[];" vertex="1" connectable="0" parent="X8xrKUzUA_T0-seAo927-55">
          <mxGeometry x="0.0671" y="-2" relative="1" as="geometry">
            <mxPoint as="offset" />
          </mxGeometry>
        </mxCell>
        <mxCell id="X8xrKUzUA_T0-seAo927-50" value="标记位是否为true" style="rhombus;whiteSpace=wrap;html=1;rounded=0;fillColor=#d80073;fontColor=#ffffff;strokeColor=#A50040;" vertex="1" parent="1">
          <mxGeometry x="740" y="-160" width="90" height="90" as="geometry" />
        </mxCell>
        <mxCell id="X8xrKUzUA_T0-seAo927-57" value="重置标记位为true" style="whiteSpace=wrap;html=1;fillColor=#f0a30a;fontColor=#000000;strokeColor=#BD7000;" vertex="1" parent="1">
          <mxGeometry x="920" y="15" width="120" height="60" as="geometry" />
        </mxCell>
        <mxCell id="X8xrKUzUA_T0-seAo927-59" value="重置标记位为true" style="whiteSpace=wrap;html=1;fillColor=#f0a30a;fontColor=#000000;strokeColor=#BD7000;" vertex="1" parent="1">
          <mxGeometry x="546" y="-280" width="120" height="60" as="geometry" />
        </mxCell>
        <mxCell id="X8xrKUzUA_T0-seAo927-65" style="edgeStyle=orthogonalEdgeStyle;rounded=0;orthogonalLoop=1;jettySize=auto;html=1;exitX=0.5;exitY=0;exitDx=0;exitDy=0;" edge="1" parent="1" source="X8xrKUzUA_T0-seAo927-64" target="X8xrKUzUA_T0-seAo927-40">
          <mxGeometry relative="1" as="geometry" />
        </mxCell>
        <mxCell id="X8xrKUzUA_T0-seAo927-64" value="&lt;p style=&quot;margin: 0px; font-variant-numeric: normal; font-variant-east-asian: normal; font-variant-alternates: normal; font-kerning: auto; font-optical-sizing: auto; font-feature-settings: normal; font-variation-settings: normal; font-variant-position: normal; font-stretch: normal; font-size: 13px; line-height: normal; font-family: &amp;quot;Helvetica Neue&amp;quot;; text-align: start;&quot; class=&quot;p1&quot;&gt;判断广告view可见面积的大小,不使用其在recyclerView的可见面积判断&lt;/p&gt;" style="shape=document;whiteSpace=wrap;html=1;boundedLbl=1;size=0.4;" vertex="1" parent="1">
          <mxGeometry x="470" y="150" width="180" height="100" as="geometry" />
        </mxCell>
      </root>
    </mxGraphModel>
  </diagram>
</mxfile>
